<mxfile host="app.diagrams.net" modified="2023-10-08T10:23:46.265Z" agent="Mozilla/5.0 (Windows NT 10.0; Win64; x64) AppleWebKit/537.36 (KHTML, like Gecko) Chrome/117.0.0.0 Safari/537.36" etag="4DNKQU-DA0FXCizNqLpM" version="22.0.4" type="github">
  <diagram name="Page-1" id="dyy4JHxhdrdSeSU1JlN6">
    <mxGraphModel dx="1034" dy="398" grid="1" gridSize="10" guides="1" tooltips="1" connect="1" arrows="1" fold="1" page="1" pageScale="1" pageWidth="850" pageHeight="1100" math="0" shadow="0">
      <root>
        <mxCell id="0" />
        <mxCell id="1" parent="0" />
        <mxCell id="KFL26OVG4pfI2ZvZVbae-14" style="edgeStyle=orthogonalEdgeStyle;rounded=0;orthogonalLoop=1;jettySize=auto;html=1;" edge="1" parent="1" source="KFL26OVG4pfI2ZvZVbae-1">
          <mxGeometry relative="1" as="geometry">
            <mxPoint x="190" y="115" as="targetPoint" />
          </mxGeometry>
        </mxCell>
        <mxCell id="KFL26OVG4pfI2ZvZVbae-1" value="" style="dashed=0;outlineConnect=0;html=1;align=center;labelPosition=center;verticalLabelPosition=bottom;verticalAlign=top;shape=mxgraph.webicons.twitter;fillColor=#49EAF7;gradientColor=#137BD0" vertex="1" parent="1">
          <mxGeometry x="40" y="80" width="80" height="70" as="geometry" />
        </mxCell>
        <mxCell id="KFL26OVG4pfI2ZvZVbae-18" style="rounded=0;orthogonalLoop=1;jettySize=auto;html=1;entryX=0;entryY=1;entryDx=0;entryDy=0;entryPerimeter=0;exitX=1;exitY=0;exitDx=0;exitDy=0;exitPerimeter=0;" edge="1" parent="1">
          <mxGeometry relative="1" as="geometry">
            <mxPoint x="360" y="160" as="targetPoint" />
            <mxPoint x="280" y="200" as="sourcePoint" />
          </mxGeometry>
        </mxCell>
        <mxCell id="KFL26OVG4pfI2ZvZVbae-5" value="Real-Time Data Streaming" style="text;html=1;align=center;verticalAlign=middle;resizable=0;points=[];autosize=1;strokeColor=none;fillColor=none;" vertex="1" parent="1">
          <mxGeometry x="40" y="230" width="170" height="30" as="geometry" />
        </mxCell>
        <mxCell id="KFL26OVG4pfI2ZvZVbae-7" value="Data Ingestion" style="text;html=1;align=center;verticalAlign=middle;resizable=0;points=[];autosize=1;strokeColor=none;fillColor=none;" vertex="1" parent="1">
          <mxGeometry x="150" y="60" width="100" height="30" as="geometry" />
        </mxCell>
        <mxCell id="KFL26OVG4pfI2ZvZVbae-10" style="edgeStyle=orthogonalEdgeStyle;rounded=0;orthogonalLoop=1;jettySize=auto;html=1;exitX=0.5;exitY=1;exitDx=0;exitDy=0;exitPerimeter=0;entryX=0.5;entryY=0;entryDx=0;entryDy=0;entryPerimeter=0;" edge="1" parent="1">
          <mxGeometry relative="1" as="geometry">
            <mxPoint x="239" y="159" as="sourcePoint" />
            <mxPoint x="240" y="200" as="targetPoint" />
          </mxGeometry>
        </mxCell>
        <mxCell id="KFL26OVG4pfI2ZvZVbae-19" value="" style="sketch=0;points=[[0,0,0],[0.25,0,0],[0.5,0,0],[0.75,0,0],[1,0,0],[0,1,0],[0.25,1,0],[0.5,1,0],[0.75,1,0],[1,1,0],[0,0.25,0],[0,0.5,0],[0,0.75,0],[1,0.25,0],[1,0.5,0],[1,0.75,0]];outlineConnect=0;fontColor=#232F3E;fillColor=#01A88D;strokeColor=#ffffff;dashed=0;verticalLabelPosition=bottom;verticalAlign=top;align=center;html=1;fontSize=12;fontStyle=0;aspect=fixed;shape=mxgraph.aws4.resourceIcon;resIcon=mxgraph.aws4.comprehend;" vertex="1" parent="1">
          <mxGeometry x="360" y="320" width="78" height="78" as="geometry" />
        </mxCell>
        <mxCell id="KFL26OVG4pfI2ZvZVbae-20" value="Amazon Redshift" style="sketch=0;outlineConnect=0;fontColor=#232F3E;gradientColor=none;strokeColor=#ffffff;fillColor=#232F3E;dashed=0;verticalLabelPosition=middle;verticalAlign=bottom;align=center;html=1;whiteSpace=wrap;fontSize=10;fontStyle=1;spacing=3;shape=mxgraph.aws4.productIcon;prIcon=mxgraph.aws4.redshift;" vertex="1" parent="1">
          <mxGeometry x="520" y="198" width="80" height="110" as="geometry" />
        </mxCell>
        <mxCell id="KFL26OVG4pfI2ZvZVbae-21" value="Amazon DynamoDB" style="sketch=0;outlineConnect=0;fontColor=#232F3E;gradientColor=none;strokeColor=#ffffff;fillColor=#232F3E;dashed=0;verticalLabelPosition=middle;verticalAlign=bottom;align=center;html=1;whiteSpace=wrap;fontSize=10;fontStyle=1;spacing=3;shape=mxgraph.aws4.productIcon;prIcon=mxgraph.aws4.dynamodb;" vertex="1" parent="1">
          <mxGeometry x="520" y="80" width="80" height="110" as="geometry" />
        </mxCell>
        <mxCell id="KFL26OVG4pfI2ZvZVbae-22" value="Amazon Athena" style="sketch=0;outlineConnect=0;fontColor=#232F3E;gradientColor=none;strokeColor=#ffffff;fillColor=#232F3E;dashed=0;verticalLabelPosition=middle;verticalAlign=bottom;align=center;html=1;whiteSpace=wrap;fontSize=10;fontStyle=1;spacing=3;shape=mxgraph.aws4.productIcon;prIcon=mxgraph.aws4.athena;" vertex="1" parent="1">
          <mxGeometry x="680" y="80" width="80" height="110" as="geometry" />
        </mxCell>
        <mxCell id="KFL26OVG4pfI2ZvZVbae-23" value="Amazon QuickSight" style="sketch=0;outlineConnect=0;fontColor=#232F3E;gradientColor=none;strokeColor=#ffffff;fillColor=#232F3E;dashed=0;verticalLabelPosition=middle;verticalAlign=bottom;align=center;html=1;whiteSpace=wrap;fontSize=10;fontStyle=1;spacing=3;shape=mxgraph.aws4.productIcon;prIcon=mxgraph.aws4.quicksight;" vertex="1" parent="1">
          <mxGeometry x="680" y="200" width="80" height="110" as="geometry" />
        </mxCell>
        <mxCell id="KFL26OVG4pfI2ZvZVbae-24" value="AWS Lambda" style="sketch=0;outlineConnect=0;fontColor=#232F3E;gradientColor=none;strokeColor=#ffffff;fillColor=#232F3E;dashed=0;verticalLabelPosition=middle;verticalAlign=bottom;align=center;html=1;whiteSpace=wrap;fontSize=10;fontStyle=1;spacing=3;shape=mxgraph.aws4.productIcon;prIcon=mxgraph.aws4.lambda;" vertex="1" parent="1">
          <mxGeometry x="200" y="80" width="80" height="100" as="geometry" />
        </mxCell>
        <mxCell id="KFL26OVG4pfI2ZvZVbae-25" value="Amazon Kinesis Data Firehose" style="sketch=0;outlineConnect=0;fontColor=#232F3E;gradientColor=none;strokeColor=#ffffff;fillColor=#232F3E;dashed=0;verticalLabelPosition=middle;verticalAlign=bottom;align=center;html=1;whiteSpace=wrap;fontSize=10;fontStyle=1;spacing=3;shape=mxgraph.aws4.productIcon;prIcon=mxgraph.aws4.kinesis_data_firehose;" vertex="1" parent="1">
          <mxGeometry x="200" y="200" width="80" height="120" as="geometry" />
        </mxCell>
        <mxCell id="KFL26OVG4pfI2ZvZVbae-26" value="Amazon S3" style="sketch=0;outlineConnect=0;fontColor=#232F3E;gradientColor=none;strokeColor=#ffffff;fillColor=#232F3E;dashed=0;verticalLabelPosition=middle;verticalAlign=bottom;align=center;html=1;whiteSpace=wrap;fontSize=10;fontStyle=1;spacing=3;shape=mxgraph.aws4.productIcon;prIcon=mxgraph.aws4.s3;" vertex="1" parent="1">
          <mxGeometry x="358" y="80" width="80" height="100" as="geometry" />
        </mxCell>
        <mxCell id="KFL26OVG4pfI2ZvZVbae-27" value="Amazon Translate" style="sketch=0;outlineConnect=0;fontColor=#232F3E;gradientColor=none;strokeColor=#ffffff;fillColor=#232F3E;dashed=0;verticalLabelPosition=middle;verticalAlign=bottom;align=center;html=1;whiteSpace=wrap;fontSize=10;fontStyle=1;spacing=3;shape=mxgraph.aws4.productIcon;prIcon=mxgraph.aws4.translate;" vertex="1" parent="1">
          <mxGeometry x="360" y="198" width="80" height="110" as="geometry" />
        </mxCell>
      </root>
    </mxGraphModel>
  </diagram>
</mxfile>
